<svg width="119" height="95" viewBox="0 0 119 95" fill="none" xmlns="http://www.w3.org/2000/svg">
<path opacity="0.5" d="M49.824 70.272C49.824 57.6 39.072 46.464 26.784 46.08C30.624 31.872 37.92 17.28 48.288 -2.28882e-05H26.4C11.04 23.808 0.288001 47.616 0.288001 66.048C0.288001 82.944 11.424 94.08 25.632 94.08C38.688 94.08 49.824 83.328 49.824 70.272ZM118.176 70.272C118.176 57.6 107.424 46.464 95.136 46.08C98.976 31.872 106.272 17.28 116.64 -2.28882e-05H94.752C79.392 23.808 68.64 47.616 68.64 66.048C68.64 82.944 79.776 94.08 93.984 94.08C107.04 94.08 118.176 83.328 118.176 70.272Z" fill="white"/>
</svg>
