<svg width="358" height="369" viewBox="0 0 358 369" fill="none" xmlns="http://www.w3.org/2000/svg">
<g filter="url(#filter0_d)">
<path d="M171.854 4.68364C176.495 2.00414 182.213 2.00415 186.854 4.68364L326.566 85.3466C331.207 88.0261 334.066 92.978 334.066 98.337V259.663C334.066 265.022 331.207 269.974 326.566 272.653L186.854 353.316C182.213 355.996 176.495 355.996 171.854 353.316L32.1413 272.653C27.5003 269.974 24.6414 265.022 24.6414 259.663V98.3369C24.6414 92.978 27.5003 88.0261 32.1414 85.3466L171.854 4.68364Z" fill="#FEE032"/>
<path d="M174.354 9.01376C177.448 7.22744 181.26 7.22744 184.354 9.01377L324.066 89.6767C327.16 91.463 329.066 94.7643 329.066 98.337V259.663C329.066 263.236 327.16 266.537 324.066 268.323L184.354 348.986C181.26 350.772 177.448 350.772 174.354 348.986L34.6413 268.323C31.5473 266.537 29.6414 263.236 29.6414 259.663V98.3369C29.6414 94.7643 31.5473 91.463 34.6414 89.6767L174.354 9.01376Z" stroke="#FFF27A" stroke-width="10"/>
</g>
<path d="M97.4582 202V167.657H103.68V183.883L118.869 167.657H126.982V168.389L113.379 181.504L127.714 201.268V202H120.577L108.865 185.835L103.68 190.837V202H97.4582ZM142.311 202.61C139.423 202.61 137.065 202 135.235 200.78C133.445 199.519 132.103 197.933 131.209 196.022C130.355 194.07 129.907 192.016 129.867 189.861C129.826 187.34 130.294 185.103 131.27 183.151C132.286 181.158 133.71 179.613 135.54 178.515C137.41 177.376 139.606 176.807 142.128 176.807C144.364 176.807 146.357 177.295 148.106 178.271C149.895 179.247 151.318 180.63 152.376 182.419C153.433 184.168 153.982 186.242 154.023 188.641C154.023 188.722 154.023 188.946 154.023 189.312C154.023 189.678 154.023 189.983 154.023 190.227H135.784C135.784 192.545 136.353 194.334 137.492 195.595C138.63 196.815 140.196 197.425 142.189 197.425C143.734 197.425 145.015 197.039 146.032 196.266C147.089 195.493 147.719 194.477 147.923 193.216H153.962C153.677 195.859 152.538 198.096 150.546 199.926C148.553 201.715 145.808 202.61 142.311 202.61ZM135.967 187.421H147.801C147.76 187.136 147.658 186.689 147.496 186.079C147.374 185.469 147.109 184.839 146.703 184.188C146.337 183.537 145.767 182.988 144.995 182.541C144.222 182.094 143.226 181.87 142.006 181.87C140.379 181.87 139.139 182.216 138.285 182.907C137.471 183.558 136.882 184.33 136.516 185.225C136.19 186.079 136.007 186.811 135.967 187.421ZM170.488 202.61C167.6 202.61 165.242 202 163.412 200.78C161.622 199.519 160.28 197.933 159.386 196.022C158.532 194.07 158.084 192.016 158.044 189.861C158.003 187.34 158.471 185.103 159.447 183.151C160.463 181.158 161.887 179.613 163.717 178.515C165.587 177.376 167.783 176.807 170.305 176.807C172.541 176.807 174.534 177.295 176.283 178.271C178.072 179.247 179.495 180.63 180.553 182.419C181.61 184.168 182.159 186.242 182.2 188.641C182.2 188.722 182.2 188.946 182.2 189.312C182.2 189.678 182.2 189.983 182.2 190.227H163.961C163.961 192.545 164.53 194.334 165.669 195.595C166.807 196.815 168.373 197.425 170.366 197.425C171.911 197.425 173.192 197.039 174.209 196.266C175.266 195.493 175.896 194.477 176.1 193.216H182.139C181.854 195.859 180.715 198.096 178.723 199.926C176.73 201.715 173.985 202.61 170.488 202.61ZM164.144 187.421H175.978C175.937 187.136 175.835 186.689 175.673 186.079C175.551 185.469 175.286 184.839 174.88 184.188C174.514 183.537 173.944 182.988 173.172 182.541C172.399 182.094 171.403 181.87 170.183 181.87C168.556 181.87 167.316 182.216 166.462 182.907C165.648 183.558 165.059 184.33 164.693 185.225C164.367 186.079 164.184 186.811 164.144 187.421ZM202.507 202.61C200.962 202.61 199.661 202.386 198.603 201.939C197.587 201.451 196.753 200.882 196.102 200.231C195.492 199.58 195.025 198.991 194.699 198.462C194.415 197.933 194.252 197.628 194.211 197.547H194.089V213.163H187.684V176.929H193.113L194.15 182.419H194.272C194.313 182.297 194.455 181.951 194.699 181.382C194.984 180.813 195.411 180.182 195.98 179.491C196.59 178.8 197.424 178.21 198.481 177.722C199.539 177.193 200.86 176.929 202.446 176.929C206.188 176.929 208.872 178.129 210.498 180.528C212.125 182.927 212.938 186.059 212.938 189.922C212.938 193.785 212.105 196.876 210.437 199.194C208.77 201.471 206.127 202.61 202.507 202.61ZM200.616 197.364C202.324 197.364 203.626 197.018 204.52 196.327C205.456 195.595 206.086 194.66 206.411 193.521C206.777 192.342 206.96 191.122 206.96 189.861C206.96 188.6 206.757 187.421 206.35 186.323C205.984 185.184 205.334 184.269 204.398 183.578C203.463 182.846 202.162 182.48 200.494 182.48C198.217 182.48 196.59 183.192 195.614 184.615C194.638 185.998 194.15 187.746 194.15 189.861C194.15 192.057 194.659 193.867 195.675 195.29C196.692 196.673 198.339 197.364 200.616 197.364ZM228.688 202.61C225.8 202.61 223.442 202 221.612 200.78C219.822 199.519 218.48 197.933 217.586 196.022C216.732 194.07 216.284 192.016 216.244 189.861C216.203 187.34 216.671 185.103 217.647 183.151C218.663 181.158 220.087 179.613 221.917 178.515C223.787 177.376 225.983 176.807 228.505 176.807C230.741 176.807 232.734 177.295 234.483 178.271C236.272 179.247 237.695 180.63 238.753 182.419C239.81 184.168 240.359 186.242 240.4 188.641C240.4 188.722 240.4 188.946 240.4 189.312C240.4 189.678 240.4 189.983 240.4 190.227H222.161C222.161 192.545 222.73 194.334 223.869 195.595C225.007 196.815 226.573 197.425 228.566 197.425C230.111 197.425 231.392 197.039 232.409 196.266C233.466 195.493 234.096 194.477 234.3 193.216H240.339C240.054 195.859 238.915 198.096 236.923 199.926C234.93 201.715 232.185 202.61 228.688 202.61ZM222.344 187.421H234.178C234.137 187.136 234.035 186.689 233.873 186.079C233.751 185.469 233.486 184.839 233.08 184.188C232.714 183.537 232.144 182.988 231.372 182.541C230.599 182.094 229.603 181.87 228.383 181.87C226.756 181.87 225.516 182.216 224.662 182.907C223.848 183.558 223.259 184.33 222.893 185.225C222.567 186.079 222.384 186.811 222.344 187.421ZM245.458 202V176.929H251.253L251.68 183.883C251.924 182.826 252.391 181.768 253.083 180.711C253.815 179.613 254.811 178.718 256.072 178.027C257.373 177.295 259.04 176.929 261.074 176.929H261.989V183.883H261.074C257.576 183.883 255.136 184.452 253.754 185.591C252.371 186.689 251.68 188.56 251.68 191.203V202H245.458Z" fill="#101820"/>
<g filter="url(#filter1_d)">
<path d="M199.517 120.022C194.833 122.245 180.654 118.307 180.654 118.307C180.654 118.307 186.571 104.834 191.256 102.611C195.94 100.388 201.588 102.484 203.869 107.292C206.15 112.1 204.202 117.799 199.517 120.022Z" fill="#FFCD00"/>
<path d="M186.803 107.47C186.132 111.875 176.507 120.078 176.507 120.078C176.507 120.078 169.758 109.382 170.429 104.977C171.1 100.571 175.309 97.558 179.83 98.2464C184.352 98.9347 187.474 103.064 186.803 107.47Z" fill="#FFCD00"/>
<path d="M203.333 131.444L188.667 129.667V135L203.333 131.444Z" fill="#FFCD00"/>
<circle cx="177" cy="133.333" r="17" fill="#FFCD00"/>
</g>
<defs>
<filter id="filter0_d" x="19.6414" y="2.67383" width="319.425" height="365.652" filterUnits="userSpaceOnUse" color-interpolation-filters="sRGB">
<feFlood flood-opacity="0" result="BackgroundImageFix"/>
<feColorMatrix in="SourceAlpha" type="matrix" values="0 0 0 0 0 0 0 0 0 0 0 0 0 0 0 0 0 0 127 0"/>
<feOffset dy="8"/>
<feGaussianBlur stdDeviation="2.5"/>
<feColorMatrix type="matrix" values="0 0 0 0 0 0 0 0 0 0 0 0 0 0 0 0 0 0 0.1 0"/>
<feBlend mode="normal" in2="BackgroundImageFix" result="effect1_dropShadow"/>
<feBlend mode="normal" in="SourceGraphic" in2="effect1_dropShadow" result="shape"/>
</filter>
<filter id="filter1_d" x="158" y="95" width="50" height="55.3334" filterUnits="userSpaceOnUse" color-interpolation-filters="sRGB">
<feFlood flood-opacity="0" result="BackgroundImageFix"/>
<feColorMatrix in="SourceAlpha" type="matrix" values="0 0 0 0 0 0 0 0 0 0 0 0 0 0 0 0 0 0 127 0"/>
<feOffset dx="-2" dy="-2"/>
<feColorMatrix type="matrix" values="0 0 0 0 0.920833 0 0 0 0 0.670367 0 0 0 0 0.184167 0 0 0 1 0"/>
<feBlend mode="normal" in2="BackgroundImageFix" result="effect1_dropShadow"/>
<feBlend mode="normal" in="SourceGraphic" in2="effect1_dropShadow" result="shape"/>
</filter>
</defs>
</svg>
