<svg width="358" height="369" viewBox="0 0 358 369" fill="none" xmlns="http://www.w3.org/2000/svg">
<g filter="url(#filter0_d)">
<path d="M171.146 4.68364C175.787 2.00414 181.505 2.00415 186.146 4.68364L325.859 85.3466C330.5 88.0261 333.359 92.978 333.359 98.337V259.663C333.359 265.022 330.5 269.974 325.859 272.653L186.146 353.316C181.505 355.996 175.787 355.996 171.146 353.316L31.4341 272.653C26.7931 269.974 23.9341 265.022 23.9341 259.663V98.3369C23.9341 92.978 26.7931 88.0261 31.4341 85.3466L171.146 4.68364Z" fill="#FEE032"/>
<path d="M173.646 9.01376C176.74 7.22744 180.552 7.22744 183.646 9.01377L323.359 89.6767C326.453 91.463 328.359 94.7643 328.359 98.337V259.663C328.359 263.236 326.453 266.537 323.359 268.323L183.646 348.986C180.552 350.772 176.74 350.772 173.646 348.986L33.9341 268.323C30.8401 266.537 28.9341 263.236 28.9341 259.663V98.3369C28.9341 94.7643 30.8401 91.463 33.9341 89.6767L173.646 9.01376Z" stroke="#FFF27A" stroke-width="10"/>
</g>
<path d="M117.101 202V167.657H123.323V196.693H140.281V202H117.101ZM156.002 202.61C153.155 202.61 150.797 202.061 148.926 200.963C147.055 199.865 145.652 198.36 144.717 196.449C143.782 194.497 143.314 192.281 143.314 189.8C143.273 186.059 144.31 182.988 146.425 180.589C148.58 178.149 151.773 176.929 156.002 176.929C160.109 176.929 163.22 178.108 165.335 180.467C167.49 182.826 168.568 185.937 168.568 189.8C168.568 192.199 168.121 194.375 167.226 196.327C166.331 198.279 164.949 199.824 163.078 200.963C161.207 202.061 158.849 202.61 156.002 202.61ZM156.002 197.364C157.791 197.364 159.154 196.978 160.089 196.205C161.065 195.432 161.716 194.456 162.041 193.277C162.366 192.057 162.529 190.837 162.529 189.617C162.529 188.356 162.366 187.116 162.041 185.896C161.716 184.676 161.065 183.68 160.089 182.907C159.154 182.134 157.791 181.748 156.002 181.748C154.172 181.748 152.769 182.155 151.793 182.968C150.858 183.741 150.207 184.737 149.841 185.957C149.516 187.136 149.353 188.356 149.353 189.617C149.353 190.837 149.516 192.057 149.841 193.277C150.207 194.456 150.858 195.432 151.793 196.205C152.769 196.978 154.172 197.364 156.002 197.364ZM190.265 176.929H196.365V177.966L187.764 202H179.102L170.501 178.027V176.929H176.479L183.494 196.876H183.616L190.265 176.929ZM210.923 202.61C208.036 202.61 205.677 202 203.847 200.78C202.058 199.519 200.716 197.933 199.821 196.022C198.967 194.07 198.52 192.016 198.479 189.861C198.438 187.34 198.906 185.103 199.882 183.151C200.899 181.158 202.322 179.613 204.152 178.515C206.023 177.376 208.219 176.807 210.74 176.807C212.977 176.807 214.969 177.295 216.718 178.271C218.507 179.247 219.931 180.63 220.988 182.419C222.045 184.168 222.594 186.242 222.635 188.641C222.635 188.722 222.635 188.946 222.635 189.312C222.635 189.678 222.635 189.983 222.635 190.227H204.396C204.396 192.545 204.965 194.334 206.104 195.595C207.243 196.815 208.808 197.425 210.801 197.425C212.346 197.425 213.627 197.039 214.644 196.266C215.701 195.493 216.332 194.477 216.535 193.216H222.574C222.289 195.859 221.151 198.096 219.158 199.926C217.165 201.715 214.42 202.61 210.923 202.61ZM204.579 187.421H216.413C216.372 187.136 216.271 186.689 216.108 186.079C215.986 185.469 215.722 184.839 215.315 184.188C214.949 183.537 214.38 182.988 213.607 182.541C212.834 182.094 211.838 181.87 210.618 181.87C208.991 181.87 207.751 182.216 206.897 182.907C206.084 183.558 205.494 184.33 205.128 185.225C204.803 186.079 204.62 186.811 204.579 187.421ZM227.693 202V176.929H233.488L233.915 183.883C234.159 182.826 234.627 181.768 235.318 180.711C236.05 179.613 237.046 178.718 238.307 178.027C239.608 177.295 241.276 176.929 243.309 176.929H244.224V183.883H243.309C239.812 183.883 237.372 184.452 235.989 185.591C234.606 186.689 233.915 188.56 233.915 191.203V202H227.693Z" fill="#101820"/>
<g filter="url(#filter1_d)">
<path d="M200.517 120.022C195.833 122.245 181.654 118.307 181.654 118.307C181.654 118.307 187.571 104.834 192.256 102.611C196.94 100.388 202.588 102.484 204.869 107.292C207.15 112.1 205.202 117.799 200.517 120.022Z" fill="#FFCD00"/>
<path d="M187.803 107.47C187.132 111.875 177.507 120.078 177.507 120.078C177.507 120.078 170.758 109.382 171.429 104.977C172.1 100.571 176.309 97.558 180.83 98.2464C185.352 98.9347 188.474 103.064 187.803 107.47Z" fill="#FFCD00"/>
<path d="M204.333 131.444L189.667 129.667V135L204.333 131.444Z" fill="#FFCD00"/>
<circle cx="178" cy="133.333" r="17" fill="#FFCD00"/>
</g>
<defs>
<filter id="filter0_d" x="18.9341" y="2.67383" width="319.425" height="365.652" filterUnits="userSpaceOnUse" color-interpolation-filters="sRGB">
<feFlood flood-opacity="0" result="BackgroundImageFix"/>
<feColorMatrix in="SourceAlpha" type="matrix" values="0 0 0 0 0 0 0 0 0 0 0 0 0 0 0 0 0 0 127 0"/>
<feOffset dy="8"/>
<feGaussianBlur stdDeviation="2.5"/>
<feColorMatrix type="matrix" values="0 0 0 0 0 0 0 0 0 0 0 0 0 0 0 0 0 0 0.1 0"/>
<feBlend mode="normal" in2="BackgroundImageFix" result="effect1_dropShadow"/>
<feBlend mode="normal" in="SourceGraphic" in2="effect1_dropShadow" result="shape"/>
</filter>
<filter id="filter1_d" x="159" y="96.1484" width="50" height="54.185" filterUnits="userSpaceOnUse" color-interpolation-filters="sRGB">
<feFlood flood-opacity="0" result="BackgroundImageFix"/>
<feColorMatrix in="SourceAlpha" type="matrix" values="0 0 0 0 0 0 0 0 0 0 0 0 0 0 0 0 0 0 127 0"/>
<feOffset dx="-2" dy="-2"/>
<feColorMatrix type="matrix" values="0 0 0 0 0.920833 0 0 0 0 0.670367 0 0 0 0 0.184167 0 0 0 1 0"/>
<feBlend mode="normal" in2="BackgroundImageFix" result="effect1_dropShadow"/>
<feBlend mode="normal" in="SourceGraphic" in2="effect1_dropShadow" result="shape"/>
</filter>
</defs>
</svg>
