<svg width="1440" height="675" viewBox="0 0 1440 675" fill="none" xmlns="http://www.w3.org/2000/svg">
<path d="M26 108.176C26.9282 107.64 28.0718 107.64 29 108.176L59.9401 126.039C60.8683 126.575 61.4401 127.565 61.4401 128.637V164.364C61.4401 165.436 60.8683 166.426 59.9401 166.962L29 184.825C28.0718 185.361 26.9282 185.361 26 184.825L-4.94006 166.962C-5.86826 166.426 -6.44006 165.436 -6.44006 164.364V128.637C-6.44006 127.565 -5.86826 126.575 -4.94006 126.039L26 108.176Z" fill="#FEE032" stroke="#FFED50" stroke-width="4"/>
<path d="M60 167.176C60.9282 166.64 62.0718 166.64 63 167.176L93.9401 185.039C94.8683 185.575 95.4401 186.565 95.4401 187.637V223.364C95.4401 224.436 94.8683 225.426 93.9401 225.962L63 243.825C62.0718 244.361 60.9282 244.361 60 243.825L29.0599 225.962C28.1317 225.426 27.5599 224.436 27.5599 223.364V187.637C27.5599 186.565 28.1317 185.575 29.0599 185.039L60 167.176Z" fill="#FEE032" stroke="#FFED50" stroke-width="4"/>
<path d="M127 167.176C127.928 166.64 129.072 166.64 130 167.176L160.94 185.039C161.868 185.575 162.44 186.565 162.44 187.637V223.364C162.44 224.436 161.868 225.426 160.94 225.962L130 243.825C129.072 244.361 127.928 244.361 127 243.825L96.0599 225.962C95.1317 225.426 94.5599 224.436 94.5599 223.364V187.637C94.5599 186.565 95.1317 185.575 96.0599 185.039L127 167.176Z" fill="#FEE032" stroke="#FFED50" stroke-width="4"/>
<path d="M-8 167.176C-7.07179 166.64 -5.9282 166.64 -5 167.176L25.9401 185.039C26.8683 185.575 27.4401 186.565 27.4401 187.637V223.364C27.4401 224.436 26.8683 225.426 25.9401 225.962L-5 243.825C-5.92821 244.361 -7.0718 244.361 -8 243.825L-38.9401 225.962C-39.8683 225.426 -40.4401 224.436 -40.4401 223.364V187.637C-40.4401 186.565 -39.8683 185.575 -38.9401 185.039L-8 167.176Z" fill="#FEE032" stroke="#FFED50" stroke-width="4"/>
<path d="M26 226.176C26.9282 225.64 28.0718 225.64 29 226.176L59.9401 244.039C60.8683 244.575 61.4401 245.565 61.4401 246.637V282.364C61.4401 283.436 60.8683 284.426 59.9401 284.962L29 302.825C28.0718 303.361 26.9282 303.361 26 302.825L-4.94006 284.962C-5.86826 284.426 -6.44006 283.436 -6.44006 282.364V246.637C-6.44006 245.565 -5.86826 244.575 -4.94006 244.039L26 226.176Z" fill="#FEE032" stroke="#FFED50" stroke-width="4"/>
<path d="M93 226.176C93.9282 225.64 95.0718 225.64 96 226.176L126.94 244.039C127.868 244.575 128.44 245.565 128.44 246.637V282.364C128.44 283.436 127.868 284.426 126.94 284.962L96 302.825C95.0718 303.361 93.9282 303.361 93 302.825L62.0599 284.962C61.1317 284.426 60.5599 283.436 60.5599 282.364V246.637C60.5599 245.565 61.1317 244.575 62.0599 244.039L93 226.176Z" fill="#FEE032" stroke="#FFED50" stroke-width="4"/>
<path d="M193 170.176C193.928 169.64 195.072 169.64 196 170.176L226.94 188.039C227.868 188.575 228.44 189.565 228.44 190.637V226.364C228.44 227.436 227.868 228.426 226.94 228.962L196 246.825C195.072 247.361 193.928 247.361 193 246.825L162.06 228.962C161.132 228.426 160.56 227.436 160.56 226.364V190.637C160.56 189.565 161.132 188.575 162.06 188.039L193 170.176Z" fill="#FEE032" stroke="#FFED50" stroke-width="4"/>
<path d="M227 229.176C227.928 228.64 229.072 228.64 230 229.176L260.94 247.039C261.868 247.575 262.44 248.565 262.44 249.637V285.364C262.44 286.436 261.868 287.426 260.94 287.962L230 305.825C229.072 306.361 227.928 306.361 227 305.825L196.06 287.962C195.132 287.426 194.56 286.436 194.56 285.364V249.637C194.56 248.565 195.132 247.575 196.06 247.039L227 229.176Z" fill="#FEE032" stroke="#FFED50" stroke-width="4"/>
<path d="M294 229.176C294.928 228.64 296.072 228.64 297 229.176L327.94 247.039C328.868 247.575 329.44 248.565 329.44 249.637V285.364C329.44 286.436 328.868 287.426 327.94 287.962L297 305.825C296.072 306.361 294.928 306.361 294 305.825L263.06 287.962C262.132 287.426 261.56 286.436 261.56 285.364V249.637C261.56 248.565 262.132 247.575 263.06 247.039L294 229.176Z" fill="#FEE032" stroke="#FFED50" stroke-width="4"/>
<path d="M159 229.176C159.928 228.64 161.072 228.64 162 229.176L192.94 247.039C193.868 247.575 194.44 248.565 194.44 249.637V285.364C194.44 286.436 193.868 287.426 192.94 287.962L162 305.825C161.072 306.361 159.928 306.361 159 305.825L128.06 287.962C127.132 287.426 126.56 286.436 126.56 285.364V249.637C126.56 248.565 127.132 247.575 128.06 247.039L159 229.176Z" fill="#FEE032" stroke="#FFED50" stroke-width="4"/>
<path d="M193 288.176C193.928 287.64 195.072 287.64 196 288.176L226.94 306.039C227.868 306.575 228.44 307.565 228.44 308.637V344.364C228.44 345.436 227.868 346.426 226.94 346.962L196 364.825C195.072 365.361 193.928 365.361 193 364.825L162.06 346.962C161.132 346.426 160.56 345.436 160.56 344.364V308.637C160.56 307.565 161.132 306.575 162.06 306.039L193 288.176Z" fill="#FEE032" stroke="#FFED50" stroke-width="4"/>
<path d="M260 288.176C260.928 287.64 262.072 287.64 263 288.176L293.94 306.039C294.868 306.575 295.44 307.565 295.44 308.637V344.364C295.44 345.436 294.868 346.426 293.94 346.962L263 364.825C262.072 365.361 260.928 365.361 260 364.825L229.06 346.962C228.132 346.426 227.56 345.436 227.56 344.364V308.637C227.56 307.565 228.132 306.575 229.06 306.039L260 288.176Z" fill="#FEE032" stroke="#FFED50" stroke-width="4"/>
<path d="M124 287.175C124.928 286.64 126.072 286.64 127 287.175L157.94 305.039C158.868 305.575 159.44 306.565 159.44 307.637V343.363C159.44 344.435 158.868 345.425 157.94 345.961L127 363.825C126.072 364.36 124.928 364.36 124 363.825L93.0599 345.961C92.1317 345.425 91.5599 344.435 91.5599 343.363V307.637C91.5599 306.565 92.1317 305.575 93.0599 305.039L124 287.175Z" fill="#FEE032" stroke="#FFED50" stroke-width="4"/>
<path d="M158 346.175C158.928 345.64 160.072 345.64 161 346.175L191.94 364.039C192.868 364.575 193.44 365.565 193.44 366.637V402.363C193.44 403.435 192.868 404.425 191.94 404.961L161 422.825C160.072 423.36 158.928 423.36 158 422.825L127.06 404.961C126.132 404.425 125.56 403.435 125.56 402.363V366.637C125.56 365.565 126.132 364.575 127.06 364.039L158 346.175Z" fill="#FEE032" stroke="#FFED50" stroke-width="4"/>
<path d="M225 346.175C225.928 345.64 227.072 345.64 228 346.175L258.94 364.039C259.868 364.575 260.44 365.565 260.44 366.637V402.363C260.44 403.435 259.868 404.425 258.94 404.961L228 422.825C227.072 423.36 225.928 423.36 225 422.825L194.06 404.961C193.132 404.425 192.56 403.435 192.56 402.363V366.637C192.56 365.565 193.132 364.575 194.06 364.039L225 346.175Z" fill="#FEE032" stroke="#FFED50" stroke-width="4"/>
<path d="M90 346.175C90.9282 345.64 92.0718 345.64 93 346.175L123.94 364.039C124.868 364.575 125.44 365.565 125.44 366.637V402.363C125.44 403.435 124.868 404.425 123.94 404.961L93 422.825C92.0718 423.36 90.9282 423.36 90 422.825L59.0599 404.961C58.1317 404.425 57.5599 403.435 57.5599 402.363V366.637C57.5599 365.565 58.1317 364.575 59.0599 364.039L90 346.175Z" fill="#FEE032" stroke="#FFED50" stroke-width="4"/>
<path d="M124 405.175C124.928 404.64 126.072 404.64 127 405.175L157.94 423.039C158.868 423.575 159.44 424.565 159.44 425.637V461.363C159.44 462.435 158.868 463.425 157.94 463.961L127 481.825C126.072 482.36 124.928 482.36 124 481.825L93.0599 463.961C92.1317 463.425 91.5599 462.435 91.5599 461.363V425.637C91.5599 424.565 92.1317 423.575 93.0599 423.039L124 405.175Z" fill="#FEE032" stroke="#FFED50" stroke-width="4"/>
<path d="M191 405.175C191.928 404.64 193.072 404.64 194 405.175L224.94 423.039C225.868 423.575 226.44 424.565 226.44 425.637V461.363C226.44 462.435 225.868 463.425 224.94 463.961L194 481.825C193.072 482.36 191.928 482.36 191 481.825L160.06 463.961C159.132 463.425 158.56 462.435 158.56 461.363V425.637C158.56 424.565 159.132 423.575 160.06 423.039L191 405.175Z" fill="#FEE032" stroke="#FFED50" stroke-width="4"/>
<path d="M291 349.175C291.928 348.64 293.072 348.64 294 349.175L324.94 367.039C325.868 367.575 326.44 368.565 326.44 369.637V405.363C326.44 406.435 325.868 407.425 324.94 407.961L294 425.825C293.072 426.36 291.928 426.36 291 425.825L260.06 407.961C259.132 407.425 258.56 406.435 258.56 405.363V369.637C258.56 368.565 259.132 367.575 260.06 367.039L291 349.175Z" fill="#FEE032" stroke="#FFED50" stroke-width="4"/>
<path d="M325 408.175C325.928 407.64 327.072 407.64 328 408.175L358.94 426.039C359.868 426.575 360.44 427.565 360.44 428.637V464.363C360.44 465.435 359.868 466.425 358.94 466.961L328 484.825C327.072 485.36 325.928 485.36 325 484.825L294.06 466.961C293.132 466.425 292.56 465.435 292.56 464.363V428.637C292.56 427.565 293.132 426.575 294.06 426.039L325 408.175Z" fill="#FEE032" stroke="#FFED50" stroke-width="4"/>
<path d="M392 408.175C392.928 407.64 394.072 407.64 395 408.175L425.94 426.039C426.868 426.575 427.44 427.565 427.44 428.637V464.363C427.44 465.435 426.868 466.425 425.94 466.961L395 484.825C394.072 485.36 392.928 485.36 392 484.825L361.06 466.961C360.132 466.425 359.56 465.435 359.56 464.363V428.637C359.56 427.565 360.132 426.575 361.06 426.039L392 408.175Z" fill="#FEE032" stroke="#FFED50" stroke-width="4"/>
<path d="M257 406.175C257.928 405.64 259.072 405.64 260 406.175L290.94 424.039C291.868 424.575 292.44 425.565 292.44 426.637V462.363C292.44 463.435 291.868 464.425 290.94 464.961L260 482.825C259.072 483.36 257.928 483.36 257 482.825L226.06 464.961C225.132 464.425 224.56 463.435 224.56 462.363V426.637C224.56 425.565 225.132 424.575 226.06 424.039L257 406.175Z" fill="#FEE032" stroke="#FFED50" stroke-width="4"/>
<path d="M290 466.175C290.928 465.64 292.072 465.64 293 466.175L323.94 484.039C324.868 484.575 325.44 485.565 325.44 486.637V522.363C325.44 523.435 324.868 524.425 323.94 524.961L293 542.825C292.072 543.36 290.928 543.36 290 542.825L259.06 524.961C258.132 524.425 257.56 523.435 257.56 522.363V486.637C257.56 485.565 258.132 484.575 259.06 484.039L290 466.175Z" fill="#FEE032" stroke="#FFED50" stroke-width="4"/>
<path d="M358 467.175C358.928 466.64 360.072 466.64 361 467.175L391.94 485.039C392.868 485.575 393.44 486.565 393.44 487.637V523.363C393.44 524.435 392.868 525.425 391.94 525.961L361 543.825C360.072 544.36 358.928 544.36 358 543.825L327.06 525.961C326.132 525.425 325.56 524.435 325.56 523.363V487.637C325.56 486.565 326.132 485.575 327.06 485.039L358 467.175Z" fill="#FEE032" stroke="#FFED50" stroke-width="4"/>
<path d="M-12 401.176C-11.0718 400.64 -9.9282 400.64 -9 401.176L21.9401 419.039C22.8683 419.575 23.4401 420.565 23.4401 421.637V457.364C23.4401 458.436 22.8683 459.426 21.9401 459.962L-9 477.825C-9.92821 478.361 -11.0718 478.361 -12 477.825L-42.9401 459.962C-43.8683 459.426 -44.4401 458.436 -44.4401 457.364V421.637C-44.4401 420.565 -43.8683 419.575 -42.9401 419.039L-12 401.176Z" fill="#FEE032" stroke="#FFED50" stroke-width="4"/>
<path d="M54 404.176C54.9282 403.64 56.0718 403.64 57 404.176L87.9401 422.039C88.8683 422.575 89.4401 423.565 89.4401 424.637V460.364C89.4401 461.436 88.8683 462.426 87.9401 462.962L57 480.825C56.0718 481.361 54.9282 481.361 54 480.825L23.0599 462.962C22.1317 462.426 21.5599 461.436 21.5599 460.364V424.637C21.5599 423.565 22.1317 422.575 23.0599 422.039L54 404.176Z" fill="#FEE032" stroke="#FFED50" stroke-width="4"/>
<path d="M88 463.176C88.9282 462.64 90.0718 462.64 91 463.176L121.94 481.039C122.868 481.575 123.44 482.565 123.44 483.637V519.364C123.44 520.436 122.868 521.426 121.94 521.962L91 539.825C90.0718 540.361 88.9282 540.361 88 539.825L57.0599 521.962C56.1317 521.426 55.5599 520.436 55.5599 519.364V483.637C55.5599 482.565 56.1317 481.575 57.0599 481.039L88 463.176Z" fill="#FEE032" stroke="#FFED50" stroke-width="4"/>
<path d="M155 463.176C155.928 462.64 157.072 462.64 158 463.176L188.94 481.039C189.868 481.575 190.44 482.565 190.44 483.637V519.364C190.44 520.436 189.868 521.426 188.94 521.962L158 539.825C157.072 540.361 155.928 540.361 155 539.825L124.06 521.962C123.132 521.426 122.56 520.436 122.56 519.364V483.637C122.56 482.565 123.132 481.575 124.06 481.039L155 463.176Z" fill="#FEE032" stroke="#FFED50" stroke-width="4"/>
<path d="M20 463.176C20.9282 462.64 22.0718 462.64 23 463.176L53.9401 481.039C54.8683 481.575 55.4401 482.565 55.4401 483.637V519.364C55.4401 520.436 54.8683 521.426 53.9401 521.962L23 539.825C22.0718 540.361 20.9282 540.361 20 539.825L-10.9401 521.962C-11.8683 521.426 -12.4401 520.436 -12.4401 519.364V483.637C-12.4401 482.565 -11.8683 481.575 -10.9401 481.039L20 463.176Z" fill="#FEE032" stroke="#FFED50" stroke-width="4"/>
<path d="M54 522.176C54.9282 521.64 56.0718 521.64 57 522.176L87.9401 540.039C88.8683 540.575 89.4401 541.565 89.4401 542.637V578.364C89.4401 579.436 88.8683 580.426 87.9401 580.962L57 598.825C56.0718 599.361 54.9282 599.361 54 598.825L23.0599 580.962C22.1317 580.426 21.5599 579.436 21.5599 578.364V542.637C21.5599 541.565 22.1317 540.575 23.0599 540.039L54 522.176Z" fill="#FEE032" stroke="#FFED50" stroke-width="4"/>
<path d="M121 522.176C121.928 521.64 123.072 521.64 124 522.176L154.94 540.039C155.868 540.575 156.44 541.565 156.44 542.637V578.364C156.44 579.436 155.868 580.426 154.94 580.962L124 598.825C123.072 599.361 121.928 599.361 121 598.825L90.0599 580.962C89.1317 580.426 88.5599 579.436 88.5599 578.364V542.637C88.5599 541.565 89.1317 540.575 90.0599 540.039L121 522.176Z" fill="#FEE032" stroke="#FFED50" stroke-width="4"/>
<path d="M766 354.175C766.928 353.64 768.072 353.64 769 354.175L799.94 372.039C800.868 372.575 801.44 373.565 801.44 374.637V410.363C801.44 411.435 800.868 412.425 799.94 412.961L769 430.825C768.072 431.36 766.928 431.36 766 430.825L735.06 412.961C734.132 412.425 733.56 411.435 733.56 410.363V374.637C733.56 373.565 734.132 372.575 735.06 372.039L766 354.175Z" fill="#FEE032" stroke="#FFED50" stroke-width="4"/>
<path d="M800 413.175C800.928 412.64 802.072 412.64 803 413.175L833.94 431.039C834.868 431.575 835.44 432.565 835.44 433.637V469.363C835.44 470.435 834.868 471.425 833.94 471.961L803 489.825C802.072 490.36 800.928 490.36 800 489.825L769.06 471.961C768.132 471.425 767.56 470.435 767.56 469.363V433.637C767.56 432.565 768.132 431.575 769.06 431.039L800 413.175Z" fill="#FEE032" stroke="#FFED50" stroke-width="4"/>
<path d="M867 413.175C867.928 412.64 869.072 412.64 870 413.175L900.94 431.039C901.868 431.575 902.44 432.565 902.44 433.637V469.363C902.44 470.435 901.868 471.425 900.94 471.961L870 489.825C869.072 490.36 867.928 490.36 867 489.825L836.06 471.961C835.132 471.425 834.56 470.435 834.56 469.363V433.637C834.56 432.565 835.132 431.575 836.06 431.039L867 413.175Z" fill="#FEE032" stroke="#FFED50" stroke-width="4"/>
<path d="M732 413.175C732.928 412.64 734.072 412.64 735 413.175L765.94 431.039C766.868 431.575 767.44 432.565 767.44 433.637V469.363C767.44 470.435 766.868 471.425 765.94 471.961L735 489.825C734.072 490.36 732.928 490.36 732 489.825L701.06 471.961C700.132 471.425 699.56 470.435 699.56 469.363V433.637C699.56 432.565 700.132 431.575 701.06 431.039L732 413.175Z" fill="#FEE032" stroke="#FFED50" stroke-width="4"/>
<path d="M766 472.175C766.928 471.64 768.072 471.64 769 472.175L799.94 490.039C800.868 490.575 801.44 491.565 801.44 492.637V528.363C801.44 529.435 800.868 530.425 799.94 530.961L769 548.825C768.072 549.36 766.928 549.36 766 548.825L735.06 530.961C734.132 530.425 733.56 529.435 733.56 528.363V492.637C733.56 491.565 734.132 490.575 735.06 490.039L766 472.175Z" fill="#FEE032" stroke="#FFED50" stroke-width="4"/>
<path d="M833 472.175C833.928 471.64 835.072 471.64 836 472.175L866.94 490.039C867.868 490.575 868.44 491.565 868.44 492.637V528.363C868.44 529.435 867.868 530.425 866.94 530.961L836 548.825C835.072 549.36 833.928 549.36 833 548.825L802.06 530.961C801.132 530.425 800.56 529.435 800.56 528.363V492.637C800.56 491.565 801.132 490.575 802.06 490.039L833 472.175Z" fill="#FEE032" stroke="#FFED50" stroke-width="4"/>
<path d="M933 416.175C933.928 415.64 935.072 415.64 936 416.175L966.94 434.039C967.868 434.575 968.44 435.565 968.44 436.637V472.363C968.44 473.435 967.868 474.425 966.94 474.961L936 492.825C935.072 493.36 933.928 493.36 933 492.825L902.06 474.961C901.132 474.425 900.56 473.435 900.56 472.363V436.637C900.56 435.565 901.132 434.575 902.06 434.039L933 416.175Z" fill="#FEE032" stroke="#FFED50" stroke-width="4"/>
<path d="M967 475.175C967.928 474.64 969.072 474.64 970 475.175L1000.94 493.039C1001.87 493.575 1002.44 494.565 1002.44 495.637V531.363C1002.44 532.435 1001.87 533.425 1000.94 533.961L970 551.825C969.072 552.36 967.928 552.36 967 551.825L936.06 533.961C935.132 533.425 934.56 532.435 934.56 531.363V495.637C934.56 494.565 935.132 493.575 936.06 493.039L967 475.175Z" fill="#FEE032" stroke="#FFED50" stroke-width="4"/>
<path d="M1034 475.175C1034.93 474.64 1036.07 474.64 1037 475.175L1067.94 493.039C1068.87 493.575 1069.44 494.565 1069.44 495.637V531.363C1069.44 532.435 1068.87 533.425 1067.94 533.961L1037 551.825C1036.07 552.36 1034.93 552.36 1034 551.825L1003.06 533.961C1002.13 533.425 1001.56 532.435 1001.56 531.363V495.637C1001.56 494.565 1002.13 493.575 1003.06 493.039L1034 475.175Z" fill="#FEE032" stroke="#FFED50" stroke-width="4"/>
<path d="M899 475.175C899.928 474.64 901.072 474.64 902 475.175L932.94 493.039C933.868 493.575 934.44 494.565 934.44 495.637V531.363C934.44 532.435 933.868 533.425 932.94 533.961L902 551.825C901.072 552.36 899.928 552.36 899 551.825L868.06 533.961C867.132 533.425 866.56 532.435 866.56 531.363V495.637C866.56 494.565 867.132 493.575 868.06 493.039L899 475.175Z" fill="#FEE032" stroke="#FFED50" stroke-width="4"/>
<path d="M933 534.175C933.928 533.64 935.072 533.64 936 534.175L966.94 552.039C967.868 552.575 968.44 553.565 968.44 554.637V590.363C968.44 591.435 967.868 592.425 966.94 592.961L936 610.825C935.072 611.36 933.928 611.36 933 610.825L902.06 592.961C901.132 592.425 900.56 591.435 900.56 590.363V554.637C900.56 553.565 901.132 552.575 902.06 552.039L933 534.175Z" fill="#FEE032" stroke="#FFED50" stroke-width="4"/>
<path d="M1000 534.175C1000.93 533.64 1002.07 533.64 1003 534.175L1033.94 552.039C1034.87 552.575 1035.44 553.565 1035.44 554.637V590.363C1035.44 591.435 1034.87 592.425 1033.94 592.961L1003 610.825C1002.07 611.36 1000.93 611.36 1000 610.825L969.06 592.961C968.132 592.425 967.56 591.435 967.56 590.363V554.637C967.56 553.565 968.132 552.575 969.06 552.039L1000 534.175Z" fill="#FEE032" stroke="#FFED50" stroke-width="4"/>
<path d="M1069 299.175C1069.93 298.64 1071.07 298.64 1072 299.175L1102.94 317.039C1103.87 317.575 1104.44 318.565 1104.44 319.637V355.363C1104.44 356.435 1103.87 357.425 1102.94 357.961L1072 375.825C1071.07 376.36 1069.93 376.36 1069 375.825L1038.06 357.961C1037.13 357.425 1036.56 356.435 1036.56 355.363V319.637C1036.56 318.565 1037.13 317.575 1038.06 317.039L1069 299.175Z" fill="#FEE032" stroke="#FFED50" stroke-width="4"/>
<path d="M1103 358.175C1103.93 357.64 1105.07 357.64 1106 358.175L1136.94 376.039C1137.87 376.575 1138.44 377.565 1138.44 378.637V414.363C1138.44 415.435 1137.87 416.425 1136.94 416.961L1106 434.825C1105.07 435.36 1103.93 435.36 1103 434.825L1072.06 416.961C1071.13 416.425 1070.56 415.435 1070.56 414.363V378.637C1070.56 377.565 1071.13 376.575 1072.06 376.039L1103 358.175Z" fill="#FEE032" stroke="#FFED50" stroke-width="4"/>
<path d="M1170 358.175C1170.93 357.64 1172.07 357.64 1173 358.175L1203.94 376.039C1204.87 376.575 1205.44 377.565 1205.44 378.637V414.363C1205.44 415.435 1204.87 416.425 1203.94 416.961L1173 434.825C1172.07 435.36 1170.93 435.36 1170 434.825L1139.06 416.961C1138.13 416.425 1137.56 415.435 1137.56 414.363V378.637C1137.56 377.565 1138.13 376.575 1139.06 376.039L1170 358.175Z" fill="#FEE032" stroke="#FFED50" stroke-width="4"/>
<path d="M1035 358.175C1035.93 357.64 1037.07 357.64 1038 358.175L1068.94 376.039C1069.87 376.575 1070.44 377.565 1070.44 378.637V414.363C1070.44 415.435 1069.87 416.425 1068.94 416.961L1038 434.825C1037.07 435.36 1035.93 435.36 1035 434.825L1004.06 416.961C1003.13 416.425 1002.56 415.435 1002.56 414.363V378.637C1002.56 377.565 1003.13 376.575 1004.06 376.039L1035 358.175Z" fill="#FEE032" stroke="#FFED50" stroke-width="4"/>
<path d="M1069 417.175C1069.93 416.64 1071.07 416.64 1072 417.175L1102.94 435.039C1103.87 435.575 1104.44 436.565 1104.44 437.637V473.363C1104.44 474.435 1103.87 475.425 1102.94 475.961L1072 493.825C1071.07 494.36 1069.93 494.36 1069 493.825L1038.06 475.961C1037.13 475.425 1036.56 474.435 1036.56 473.363V437.637C1036.56 436.565 1037.13 435.575 1038.06 435.039L1069 417.175Z" fill="#FEE032" stroke="#FFED50" stroke-width="4"/>
<path d="M1136 417.175C1136.93 416.64 1138.07 416.64 1139 417.175L1169.94 435.039C1170.87 435.575 1171.44 436.565 1171.44 437.637V473.363C1171.44 474.435 1170.87 475.425 1169.94 475.961L1139 493.825C1138.07 494.36 1136.93 494.36 1136 493.825L1105.06 475.961C1104.13 475.425 1103.56 474.435 1103.56 473.363V437.637C1103.56 436.565 1104.13 435.575 1105.06 435.039L1136 417.175Z" fill="#FEE032" stroke="#FFED50" stroke-width="4"/>
<path d="M1236 361.175C1236.93 360.64 1238.07 360.64 1239 361.175L1269.94 379.039C1270.87 379.575 1271.44 380.565 1271.44 381.637V417.363C1271.44 418.435 1270.87 419.425 1269.94 419.961L1239 437.825C1238.07 438.36 1236.93 438.36 1236 437.825L1205.06 419.961C1204.13 419.425 1203.56 418.435 1203.56 417.363V381.637C1203.56 380.565 1204.13 379.575 1205.06 379.039L1236 361.175Z" fill="#FEE032" stroke="#FFED50" stroke-width="4"/>
<path d="M1270 420.175C1270.93 419.64 1272.07 419.64 1273 420.175L1303.94 438.039C1304.87 438.575 1305.44 439.565 1305.44 440.637V476.363C1305.44 477.435 1304.87 478.425 1303.94 478.961L1273 496.825C1272.07 497.36 1270.93 497.36 1270 496.825L1239.06 478.961C1238.13 478.425 1237.56 477.435 1237.56 476.363V440.637C1237.56 439.565 1238.13 438.575 1239.06 438.039L1270 420.175Z" fill="#FEE032" stroke="#FFED50" stroke-width="4"/>
<path d="M1337 420.175C1337.93 419.64 1339.07 419.64 1340 420.175L1370.94 438.039C1371.87 438.575 1372.44 439.565 1372.44 440.637V476.363C1372.44 477.435 1371.87 478.425 1370.94 478.961L1340 496.825C1339.07 497.36 1337.93 497.36 1337 496.825L1306.06 478.961C1305.13 478.425 1304.56 477.435 1304.56 476.363V440.637C1304.56 439.565 1305.13 438.575 1306.06 438.039L1337 420.175Z" fill="#FEE032" stroke="#FFED50" stroke-width="4"/>
<path d="M1202 420.175C1202.93 419.64 1204.07 419.64 1205 420.175L1235.94 438.039C1236.87 438.575 1237.44 439.565 1237.44 440.637V476.363C1237.44 477.435 1236.87 478.425 1235.94 478.961L1205 496.825C1204.07 497.36 1202.93 497.36 1202 496.825L1171.06 478.961C1170.13 478.425 1169.56 477.435 1169.56 476.363V440.637C1169.56 439.565 1170.13 438.575 1171.06 438.039L1202 420.175Z" fill="#FEE032" stroke="#FFED50" stroke-width="4"/>
<path d="M1236 479.175C1236.93 478.64 1238.07 478.64 1239 479.175L1269.94 497.039C1270.87 497.575 1271.44 498.565 1271.44 499.637V535.363C1271.44 536.435 1270.87 537.425 1269.94 537.961L1239 555.825C1238.07 556.36 1236.93 556.36 1236 555.825L1205.06 537.961C1204.13 537.425 1203.56 536.435 1203.56 535.363V499.637C1203.56 498.565 1204.13 497.575 1205.06 497.039L1236 479.175Z" fill="#FEE032" stroke="#FFED50" stroke-width="4"/>
<path d="M1303 479.175C1303.93 478.64 1305.07 478.64 1306 479.175L1336.94 497.039C1337.87 497.575 1338.44 498.565 1338.44 499.637V535.363C1338.44 536.435 1337.87 537.425 1336.94 537.961L1306 555.825C1305.07 556.36 1303.93 556.36 1303 555.825L1272.06 537.961C1271.13 537.425 1270.56 536.435 1270.56 535.363V499.637C1270.56 498.565 1271.13 497.575 1272.06 497.039L1303 479.175Z" fill="#FEE032" stroke="#FFED50" stroke-width="4"/>
<path d="M1405 415.175C1405.93 414.64 1407.07 414.64 1408 415.175L1438.94 433.039C1439.87 433.575 1440.44 434.565 1440.44 435.637V471.363C1440.44 472.435 1439.87 473.425 1438.94 473.961L1408 491.825C1407.07 492.36 1405.93 492.36 1405 491.825L1374.06 473.961C1373.13 473.425 1372.56 472.435 1372.56 471.363V435.637C1372.56 434.565 1373.13 433.575 1374.06 433.039L1405 415.175Z" fill="#FEE032" stroke="#FFED50" stroke-width="4"/>
<path d="M1439 474.175C1439.93 473.64 1441.07 473.64 1442 474.175L1472.94 492.039C1473.87 492.575 1474.44 493.565 1474.44 494.637V530.363C1474.44 531.435 1473.87 532.425 1472.94 532.961L1442 550.825C1441.07 551.36 1439.93 551.36 1439 550.825L1408.06 532.961C1407.13 532.425 1406.56 531.435 1406.56 530.363V494.637C1406.56 493.565 1407.13 492.575 1408.06 492.039L1439 474.175Z" fill="#FEE032" stroke="#FFED50" stroke-width="4"/>
<path d="M1371 474.175C1371.93 473.64 1373.07 473.64 1374 474.175L1404.94 492.039C1405.87 492.575 1406.44 493.565 1406.44 494.637V530.363C1406.44 531.435 1405.87 532.425 1404.94 532.961L1374 550.825C1373.07 551.36 1371.93 551.36 1371 550.825L1340.06 532.961C1339.13 532.425 1338.56 531.435 1338.56 530.363V494.637C1338.56 493.565 1339.13 492.575 1340.06 492.039L1371 474.175Z" fill="#FEE032" stroke="#FFED50" stroke-width="4"/>
<path d="M1405 533.175C1405.93 532.64 1407.07 532.64 1408 533.175L1438.94 551.039C1439.87 551.575 1440.44 552.565 1440.44 553.637V589.363C1440.44 590.435 1439.87 591.425 1438.94 591.961L1408 609.825C1407.07 610.36 1405.93 610.36 1405 609.825L1374.06 591.961C1373.13 591.425 1372.56 590.435 1372.56 589.363V553.637C1372.56 552.565 1373.13 551.575 1374.06 551.039L1405 533.175Z" fill="#FEE032" stroke="#FFED50" stroke-width="4"/>
<path d="M1472 533.175C1472.93 532.64 1474.07 532.64 1475 533.175L1505.94 551.039C1506.87 551.575 1507.44 552.565 1507.44 553.637V589.363C1507.44 590.435 1506.87 591.425 1505.94 591.961L1475 609.825C1474.07 610.36 1472.93 610.36 1472 609.825L1441.06 591.961C1440.13 591.425 1439.56 590.435 1439.56 589.363V553.637C1439.56 552.565 1440.13 551.575 1441.06 551.039L1472 533.175Z" fill="#FEE032" stroke="#FFED50" stroke-width="4"/>
<path d="M1137 182.176C1137.93 181.64 1139.07 181.64 1140 182.176L1170.94 200.039C1171.87 200.575 1172.44 201.565 1172.44 202.637V238.364C1172.44 239.436 1171.87 240.426 1170.94 240.962L1140 258.825C1139.07 259.361 1137.93 259.361 1137 258.825L1106.06 240.962C1105.13 240.426 1104.56 239.436 1104.56 238.364V202.637C1104.56 201.565 1105.13 200.575 1106.06 200.039L1137 182.176Z" fill="#FEE032" stroke="#FFED50" stroke-width="4"/>
<path d="M1171 241.176C1171.93 240.64 1173.07 240.64 1174 241.176L1204.94 259.039C1205.87 259.575 1206.44 260.565 1206.44 261.637V297.364C1206.44 298.436 1205.87 299.426 1204.94 299.962L1174 317.825C1173.07 318.361 1171.93 318.361 1171 317.825L1140.06 299.962C1139.13 299.426 1138.56 298.436 1138.56 297.364V261.637C1138.56 260.565 1139.13 259.575 1140.06 259.039L1171 241.176Z" fill="#FEE032" stroke="#FFED50" stroke-width="4"/>
<path d="M1238 241.176C1238.93 240.64 1240.07 240.64 1241 241.176L1271.94 259.039C1272.87 259.575 1273.44 260.565 1273.44 261.637V297.364C1273.44 298.436 1272.87 299.426 1271.94 299.962L1241 317.825C1240.07 318.361 1238.93 318.361 1238 317.825L1207.06 299.962C1206.13 299.426 1205.56 298.436 1205.56 297.364V261.637C1205.56 260.565 1206.13 259.575 1207.06 259.039L1238 241.176Z" fill="#FEE032" stroke="#FFED50" stroke-width="4"/>
<path d="M1103 241.176C1103.93 240.64 1105.07 240.64 1106 241.176L1136.94 259.039C1137.87 259.575 1138.44 260.565 1138.44 261.637V297.364C1138.44 298.436 1137.87 299.426 1136.94 299.962L1106 317.825C1105.07 318.361 1103.93 318.361 1103 317.825L1072.06 299.962C1071.13 299.426 1070.56 298.436 1070.56 297.364V261.637C1070.56 260.565 1071.13 259.575 1072.06 259.039L1103 241.176Z" fill="#FEE032" stroke="#FFED50" stroke-width="4"/>
<path d="M1137 300.176C1137.93 299.64 1139.07 299.64 1140 300.176L1170.94 318.039C1171.87 318.575 1172.44 319.565 1172.44 320.637V356.364C1172.44 357.436 1171.87 358.426 1170.94 358.962L1140 376.825C1139.07 377.361 1137.93 377.361 1137 376.825L1106.06 358.962C1105.13 358.426 1104.56 357.436 1104.56 356.364V320.637C1104.56 319.565 1105.13 318.575 1106.06 318.039L1137 300.176Z" fill="#FEE032" stroke="#FFED50" stroke-width="4"/>
<path d="M1204 300.176C1204.93 299.64 1206.07 299.64 1207 300.176L1237.94 318.039C1238.87 318.575 1239.44 319.565 1239.44 320.637V356.364C1239.44 357.436 1238.87 358.426 1237.94 358.962L1207 376.825C1206.07 377.361 1204.93 377.361 1204 376.825L1173.06 358.962C1172.13 358.426 1171.56 357.436 1171.56 356.364V320.637C1171.56 319.565 1172.13 318.575 1173.06 318.039L1204 300.176Z" fill="#FEE032" stroke="#FFED50" stroke-width="4"/>
<path d="M1304 244.176C1304.93 243.64 1306.07 243.64 1307 244.176L1337.94 262.039C1338.87 262.575 1339.44 263.565 1339.44 264.637V300.364C1339.44 301.436 1338.87 302.426 1337.94 302.962L1307 320.825C1306.07 321.361 1304.93 321.361 1304 320.825L1273.06 302.962C1272.13 302.426 1271.56 301.436 1271.56 300.364V264.637C1271.56 263.565 1272.13 262.575 1273.06 262.039L1304 244.176Z" fill="#FEE032" stroke="#FFED50" stroke-width="4"/>
<path d="M1338 303.176C1338.93 302.64 1340.07 302.64 1341 303.176L1371.94 321.039C1372.87 321.575 1373.44 322.565 1373.44 323.637V359.364C1373.44 360.436 1372.87 361.426 1371.94 361.962L1341 379.825C1340.07 380.361 1338.93 380.361 1338 379.825L1307.06 361.962C1306.13 361.426 1305.56 360.436 1305.56 359.364V323.637C1305.56 322.565 1306.13 321.575 1307.06 321.039L1338 303.176Z" fill="#FEE032" stroke="#FFED50" stroke-width="4"/>
<path d="M1405 303.176C1405.93 302.64 1407.07 302.64 1408 303.176L1438.94 321.039C1439.87 321.575 1440.44 322.565 1440.44 323.637V359.364C1440.44 360.436 1439.87 361.426 1438.94 361.962L1408 379.825C1407.07 380.361 1405.93 380.361 1405 379.825L1374.06 361.962C1373.13 361.426 1372.56 360.436 1372.56 359.364V323.637C1372.56 322.565 1373.13 321.575 1374.06 321.039L1405 303.176Z" fill="#FEE032" stroke="#FFED50" stroke-width="4"/>
<path d="M1270 303.176C1270.93 302.64 1272.07 302.64 1273 303.176L1303.94 321.039C1304.87 321.575 1305.44 322.565 1305.44 323.637V359.364C1305.44 360.436 1304.87 361.426 1303.94 361.962L1273 379.825C1272.07 380.361 1270.93 380.361 1270 379.825L1239.06 361.962C1238.13 361.426 1237.56 360.436 1237.56 359.364V323.637C1237.56 322.565 1238.13 321.575 1239.06 321.039L1270 303.176Z" fill="#FEE032" stroke="#FFED50" stroke-width="4"/>
<path d="M1304 362.176C1304.93 361.64 1306.07 361.64 1307 362.176L1337.94 380.039C1338.87 380.575 1339.44 381.565 1339.44 382.637V418.364C1339.44 419.436 1338.87 420.426 1337.94 420.962L1307 438.825C1306.07 439.361 1304.93 439.361 1304 438.825L1273.06 420.962C1272.13 420.426 1271.56 419.436 1271.56 418.364V382.637C1271.56 381.565 1272.13 380.575 1273.06 380.039L1304 362.176Z" fill="#FEE032" stroke="#FFED50" stroke-width="4"/>
<path d="M1371 362.176C1371.93 361.64 1373.07 361.64 1374 362.176L1404.94 380.039C1405.87 380.575 1406.44 381.565 1406.44 382.637V418.364C1406.44 419.436 1405.87 420.426 1404.94 420.962L1374 438.825C1373.07 439.361 1371.93 439.361 1371 438.825L1340.06 420.962C1339.13 420.426 1338.56 419.436 1338.56 418.364V382.637C1338.56 381.565 1339.13 380.575 1340.06 380.039L1371 362.176Z" fill="#FEE032" stroke="#FFED50" stroke-width="4"/>
<path d="M1442 3.17543C1441.07 2.63953 1439.93 2.63953 1439 3.17543L1408.06 21.0387C1407.13 21.5746 1406.56 22.565 1406.56 23.6368V59.3633C1406.56 60.435 1407.13 61.4254 1408.06 61.9613L1439 79.8246C1439.93 80.3605 1441.07 80.3605 1442 79.8246L1472.94 61.9613C1473.87 61.4254 1474.44 60.435 1474.44 59.3633V23.6367C1474.44 22.565 1473.87 21.5746 1472.94 21.0387L1442 3.17543Z" fill="#FEE032" stroke="#FFED50" stroke-width="4"/>
<path d="M1408 62.1754C1407.07 61.6395 1405.93 61.6395 1405 62.1754L1374.06 80.0387C1373.13 80.5746 1372.56 81.565 1372.56 82.6368V118.363C1372.56 119.435 1373.13 120.425 1374.06 120.961L1405 138.825C1405.93 139.36 1407.07 139.36 1408 138.825L1438.94 120.961C1439.87 120.425 1440.44 119.435 1440.44 118.363V82.6367C1440.44 81.565 1439.87 80.5746 1438.94 80.0387L1408 62.1754Z" fill="#FEE032" stroke="#FFED50" stroke-width="4"/>
<path d="M1341 62.1754C1340.07 61.6395 1338.93 61.6395 1338 62.1754L1307.06 80.0387C1306.13 80.5746 1305.56 81.565 1305.56 82.6368V118.363C1305.56 119.435 1306.13 120.425 1307.06 120.961L1338 138.825C1338.93 139.36 1340.07 139.36 1341 138.825L1371.94 120.961C1372.87 120.425 1373.44 119.435 1373.44 118.363V82.6367C1373.44 81.565 1372.87 80.5746 1371.94 80.0387L1341 62.1754Z" fill="#FEE032" stroke="#FFED50" stroke-width="4"/>
<path d="M1476 62.1754C1475.07 61.6395 1473.93 61.6395 1473 62.1754L1442.06 80.0387C1441.13 80.5746 1440.56 81.565 1440.56 82.6368V118.363C1440.56 119.435 1441.13 120.425 1442.06 120.961L1473 138.825C1473.93 139.36 1475.07 139.36 1476 138.825L1506.94 120.961C1507.87 120.425 1508.44 119.435 1508.44 118.363V82.6367C1508.44 81.565 1507.87 80.5746 1506.94 80.0387L1476 62.1754Z" fill="#FEE032" stroke="#FFED50" stroke-width="4"/>
<path d="M1442 121.175C1441.07 120.64 1439.93 120.64 1439 121.175L1408.06 139.039C1407.13 139.575 1406.56 140.565 1406.56 141.637V177.363C1406.56 178.435 1407.13 179.425 1408.06 179.961L1439 197.825C1439.93 198.36 1441.07 198.36 1442 197.825L1472.94 179.961C1473.87 179.425 1474.44 178.435 1474.44 177.363V141.637C1474.44 140.565 1473.87 139.575 1472.94 139.039L1442 121.175Z" fill="#FEE032" stroke="#FFED50" stroke-width="4"/>
<path d="M1375 121.175C1374.07 120.64 1372.93 120.64 1372 121.175L1341.06 139.039C1340.13 139.575 1339.56 140.565 1339.56 141.637V177.363C1339.56 178.435 1340.13 179.425 1341.06 179.961L1372 197.825C1372.93 198.36 1374.07 198.36 1375 197.825L1405.94 179.961C1406.87 179.425 1407.44 178.435 1407.44 177.363V141.637C1407.44 140.565 1406.87 139.575 1405.94 139.039L1375 121.175Z" fill="#FEE032" stroke="#FFED50" stroke-width="4"/>
<path d="M1275 65.1754C1274.07 64.6395 1272.93 64.6395 1272 65.1754L1241.06 83.0387C1240.13 83.5746 1239.56 84.565 1239.56 85.6368V121.363C1239.56 122.435 1240.13 123.425 1241.06 123.961L1272 141.825C1272.93 142.36 1274.07 142.36 1275 141.825L1305.94 123.961C1306.87 123.425 1307.44 122.435 1307.44 121.363V85.6367C1307.44 84.565 1306.87 83.5746 1305.94 83.0387L1275 65.1754Z" fill="#FEE032" stroke="#FFED50" stroke-width="4"/>
<path d="M1241 124.175C1240.07 123.64 1238.93 123.64 1238 124.175L1207.06 142.039C1206.13 142.575 1205.56 143.565 1205.56 144.637V180.363C1205.56 181.435 1206.13 182.425 1207.06 182.961L1238 200.825C1238.93 201.36 1240.07 201.36 1241 200.825L1271.94 182.961C1272.87 182.425 1273.44 181.435 1273.44 180.363V144.637C1273.44 143.565 1272.87 142.575 1271.94 142.039L1241 124.175Z" fill="#FEE032" stroke="#FFED50" stroke-width="4"/>
<path d="M1174 124.175C1173.07 123.64 1171.93 123.64 1171 124.175L1140.06 142.039C1139.13 142.575 1138.56 143.565 1138.56 144.637V180.363C1138.56 181.435 1139.13 182.425 1140.06 182.961L1171 200.825C1171.93 201.36 1173.07 201.36 1174 200.825L1204.94 182.961C1205.87 182.425 1206.44 181.435 1206.44 180.363V144.637C1206.44 143.565 1205.87 142.575 1204.94 142.039L1174 124.175Z" fill="#FEE032" stroke="#FFED50" stroke-width="4"/>
<path d="M1309 124.175C1308.07 123.64 1306.93 123.64 1306 124.175L1275.06 142.039C1274.13 142.575 1273.56 143.565 1273.56 144.637V180.363C1273.56 181.435 1274.13 182.425 1275.06 182.961L1306 200.825C1306.93 201.36 1308.07 201.36 1309 200.825L1339.94 182.961C1340.87 182.425 1341.44 181.435 1341.44 180.363V144.637C1341.44 143.565 1340.87 142.575 1339.94 142.039L1309 124.175Z" fill="#FEE032" stroke="#FFED50" stroke-width="4"/>
<path d="M1275 183.175C1274.07 182.64 1272.93 182.64 1272 183.175L1241.06 201.039C1240.13 201.575 1239.56 202.565 1239.56 203.637V239.363C1239.56 240.435 1240.13 241.425 1241.06 241.961L1272 259.825C1272.93 260.36 1274.07 260.36 1275 259.825L1305.94 241.961C1306.87 241.425 1307.44 240.435 1307.44 239.363V203.637C1307.44 202.565 1306.87 201.575 1305.94 201.039L1275 183.175Z" fill="#FEE032" stroke="#FFED50" stroke-width="4"/>
<path d="M1208 183.175C1207.07 182.64 1205.93 182.64 1205 183.175L1174.06 201.039C1173.13 201.575 1172.56 202.565 1172.56 203.637V239.363C1172.56 240.435 1173.13 241.425 1174.06 241.961L1205 259.825C1205.93 260.36 1207.07 260.36 1208 259.825L1238.94 241.961C1239.87 241.425 1240.44 240.435 1240.44 239.363V203.637C1240.44 202.565 1239.87 201.575 1238.94 201.039L1208 183.175Z" fill="#FEE032" stroke="#FFED50" stroke-width="4"/>
<path d="M463 172.176C463.928 171.64 465.072 171.64 466 172.176L496.94 190.039C497.868 190.575 498.44 191.565 498.44 192.637V228.364C498.44 229.436 497.868 230.426 496.94 230.962L466 248.825C465.072 249.361 463.928 249.361 463 248.825L432.06 230.962C431.132 230.426 430.56 229.436 430.56 228.364V192.637C430.56 191.565 431.132 190.575 432.06 190.039L463 172.176Z" fill="#FEE032" stroke="#FFED50" stroke-width="4"/>
<path d="M497 231.176C497.928 230.64 499.072 230.64 500 231.176L530.94 249.039C531.868 249.575 532.44 250.565 532.44 251.637V287.364C532.44 288.436 531.868 289.426 530.94 289.962L500 307.825C499.072 308.361 497.928 308.361 497 307.825L466.06 289.962C465.132 289.426 464.56 288.436 464.56 287.364V251.637C464.56 250.565 465.132 249.575 466.06 249.039L497 231.176Z" fill="#FEE032" stroke="#FFED50" stroke-width="4"/>
<path d="M564 231.176C564.928 230.64 566.072 230.64 567 231.176L597.94 249.039C598.868 249.575 599.44 250.565 599.44 251.637V287.364C599.44 288.436 598.868 289.426 597.94 289.962L567 307.825C566.072 308.361 564.928 308.361 564 307.825L533.06 289.962C532.132 289.426 531.56 288.436 531.56 287.364V251.637C531.56 250.565 532.132 249.575 533.06 249.039L564 231.176Z" fill="#FEE032" stroke="#FFED50" stroke-width="4"/>
<path d="M429 231.176C429.928 230.64 431.072 230.64 432 231.176L462.94 249.039C463.868 249.575 464.44 250.565 464.44 251.637V287.364C464.44 288.436 463.868 289.426 462.94 289.962L432 307.825C431.072 308.361 429.928 308.361 429 307.825L398.06 289.962C397.132 289.426 396.56 288.436 396.56 287.364V251.637C396.56 250.565 397.132 249.575 398.06 249.039L429 231.176Z" fill="#FEE032" stroke="#FFED50" stroke-width="4"/>
<path d="M463 290.176C463.928 289.64 465.072 289.64 466 290.176L496.94 308.039C497.868 308.575 498.44 309.565 498.44 310.637V346.364C498.44 347.436 497.868 348.426 496.94 348.962L466 366.825C465.072 367.361 463.928 367.361 463 366.825L432.06 348.962C431.132 348.426 430.56 347.436 430.56 346.364V310.637C430.56 309.565 431.132 308.575 432.06 308.039L463 290.176Z" fill="#FEE032" stroke="#FFED50" stroke-width="4"/>
<path d="M530 290.176C530.928 289.64 532.072 289.64 533 290.176L563.94 308.039C564.868 308.575 565.44 309.565 565.44 310.637V346.364C565.44 347.436 564.868 348.426 563.94 348.962L533 366.825C532.072 367.361 530.928 367.361 530 366.825L499.06 348.962C498.132 348.426 497.56 347.436 497.56 346.364V310.637C497.56 309.565 498.132 308.575 499.06 308.039L530 290.176Z" fill="#FEE032" stroke="#FFED50" stroke-width="4"/>
<path d="M630 234.176C630.928 233.64 632.072 233.64 633 234.176L663.94 252.039C664.868 252.575 665.44 253.565 665.44 254.637V290.364C665.44 291.436 664.868 292.426 663.94 292.962L633 310.825C632.072 311.361 630.928 311.361 630 310.825L599.06 292.962C598.132 292.426 597.56 291.436 597.56 290.364V254.637C597.56 253.565 598.132 252.575 599.06 252.039L630 234.176Z" fill="#FEE032" stroke="#FFED50" stroke-width="4"/>
<path d="M664 293.176C664.928 292.64 666.072 292.64 667 293.176L697.94 311.039C698.868 311.575 699.44 312.565 699.44 313.637V349.364C699.44 350.436 698.868 351.426 697.94 351.962L667 369.825C666.072 370.361 664.928 370.361 664 369.825L633.06 351.962C632.132 351.426 631.56 350.436 631.56 349.364V313.637C631.56 312.565 632.132 311.575 633.06 311.039L664 293.176Z" fill="#FEE032" stroke="#FFED50" stroke-width="4"/>
<path d="M731 293.176C731.928 292.64 733.072 292.64 734 293.176L764.94 311.039C765.868 311.575 766.44 312.565 766.44 313.637V349.364C766.44 350.436 765.868 351.426 764.94 351.962L734 369.825C733.072 370.361 731.928 370.361 731 369.825L700.06 351.962C699.132 351.426 698.56 350.436 698.56 349.364V313.637C698.56 312.565 699.132 311.575 700.06 311.039L731 293.176Z" fill="#FEE032" stroke="#FFED50" stroke-width="4"/>
<path d="M596 293.176C596.928 292.64 598.072 292.64 599 293.176L629.94 311.039C630.868 311.575 631.44 312.565 631.44 313.637V349.364C631.44 350.436 630.868 351.426 629.94 351.962L599 369.825C598.072 370.361 596.928 370.361 596 369.825L565.06 351.962C564.132 351.426 563.56 350.436 563.56 349.364V313.637C563.56 312.565 564.132 311.575 565.06 311.039L596 293.176Z" fill="#FEE032" stroke="#FFED50" stroke-width="4"/>
<path d="M630 352.176C630.928 351.64 632.072 351.64 633 352.176L663.94 370.039C664.868 370.575 665.44 371.565 665.44 372.637V408.364C665.44 409.436 664.868 410.426 663.94 410.962L633 428.825C632.072 429.361 630.928 429.361 630 428.825L599.06 410.962C598.132 410.426 597.56 409.436 597.56 408.364V372.637C597.56 371.565 598.132 370.575 599.06 370.039L630 352.176Z" fill="#FEE032" stroke="#FFED50" stroke-width="4"/>
<path d="M697 352.176C697.928 351.64 699.072 351.64 700 352.176L730.94 370.039C731.868 370.575 732.44 371.565 732.44 372.637V408.364C732.44 409.436 731.868 410.426 730.94 410.962L700 428.825C699.072 429.361 697.928 429.361 697 428.825L666.06 410.962C665.132 410.426 664.56 409.436 664.56 408.364V372.637C664.56 371.565 665.132 370.575 666.06 370.039L697 352.176Z" fill="#FEE032" stroke="#FFED50" stroke-width="4"/>
<path d="M534 402.175C534.928 401.64 536.072 401.64 537 402.175L567.94 420.039C568.868 420.575 569.44 421.565 569.44 422.637V458.363C569.44 459.435 568.868 460.425 567.94 460.961L537 478.825C536.072 479.36 534.928 479.36 534 478.825L503.06 460.961C502.132 460.425 501.56 459.435 501.56 458.363V422.637C501.56 421.565 502.132 420.575 503.06 420.039L534 402.175Z" fill="#FEE032" stroke="#FFED50" stroke-width="4"/>
<path d="M568 461.175C568.928 460.64 570.072 460.64 571 461.175L601.94 479.039C602.868 479.575 603.44 480.565 603.44 481.637V517.363C603.44 518.435 602.868 519.425 601.94 519.961L571 537.825C570.072 538.36 568.928 538.36 568 537.825L537.06 519.961C536.132 519.425 535.56 518.435 535.56 517.363V481.637C535.56 480.565 536.132 479.575 537.06 479.039L568 461.175Z" fill="#FEE032" stroke="#FFED50" stroke-width="4"/>
<path d="M635 461.175C635.928 460.64 637.072 460.64 638 461.175L668.94 479.039C669.868 479.575 670.44 480.565 670.44 481.637V517.363C670.44 518.435 669.868 519.425 668.94 519.961L638 537.825C637.072 538.36 635.928 538.36 635 537.825L604.06 519.961C603.132 519.425 602.56 518.435 602.56 517.363V481.637C602.56 480.565 603.132 479.575 604.06 479.039L635 461.175Z" fill="#FEE032" stroke="#FFED50" stroke-width="4"/>
<path d="M500 461.175C500.928 460.64 502.072 460.64 503 461.175L533.94 479.039C534.868 479.575 535.44 480.565 535.44 481.637V517.363C535.44 518.435 534.868 519.425 533.94 519.961L503 537.825C502.072 538.36 500.928 538.36 500 537.825L469.06 519.961C468.132 519.425 467.56 518.435 467.56 517.363V481.637C467.56 480.565 468.132 479.575 469.06 479.039L500 461.175Z" fill="#FEE032" stroke="#FFED50" stroke-width="4"/>
<path d="M534 520.175C534.928 519.64 536.072 519.64 537 520.175L567.94 538.039C568.868 538.575 569.44 539.565 569.44 540.637V576.363C569.44 577.435 568.868 578.425 567.94 578.961L537 596.825C536.072 597.36 534.928 597.36 534 596.825L503.06 578.961C502.132 578.425 501.56 577.435 501.56 576.363V540.637C501.56 539.565 502.132 538.575 503.06 538.039L534 520.175Z" fill="#FEE032" stroke="#FFED50" stroke-width="4"/>
<path d="M601 520.175C601.928 519.64 603.072 519.64 604 520.175L634.94 538.039C635.868 538.575 636.44 539.565 636.44 540.637V576.363C636.44 577.435 635.868 578.425 634.94 578.961L604 596.825C603.072 597.36 601.928 597.36 601 596.825L570.06 578.961C569.132 578.425 568.56 577.435 568.56 576.363V540.637C568.56 539.565 569.132 538.575 570.06 538.039L601 520.175Z" fill="#FEE032" stroke="#FFED50" stroke-width="4"/>
<path d="M701 464.175C701.928 463.64 703.072 463.64 704 464.175L734.94 482.039C735.868 482.575 736.44 483.565 736.44 484.637V520.363C736.44 521.435 735.868 522.425 734.94 522.961L704 540.825C703.072 541.36 701.928 541.36 701 540.825L670.06 522.961C669.132 522.425 668.56 521.435 668.56 520.363V484.637C668.56 483.565 669.132 482.575 670.06 482.039L701 464.175Z" fill="#FEE032" stroke="#FFED50" stroke-width="4"/>
<path d="M735 523.175C735.928 522.64 737.072 522.64 738 523.175L768.94 541.039C769.868 541.575 770.44 542.565 770.44 543.637V579.363C770.44 580.435 769.868 581.425 768.94 581.961L738 599.825C737.072 600.36 735.928 600.36 735 599.825L704.06 581.961C703.132 581.425 702.56 580.435 702.56 579.363V543.637C702.56 542.565 703.132 541.575 704.06 541.039L735 523.175Z" fill="#FEE032" stroke="#FFED50" stroke-width="4"/>
<path d="M802 523.175C802.928 522.64 804.072 522.64 805 523.175L835.94 541.039C836.868 541.575 837.44 542.565 837.44 543.637V579.363C837.44 580.435 836.868 581.425 835.94 581.961L805 599.825C804.072 600.36 802.928 600.36 802 599.825L771.06 581.961C770.132 581.425 769.56 580.435 769.56 579.363V543.637C769.56 542.565 770.132 541.575 771.06 541.039L802 523.175Z" fill="#FEE032" stroke="#FFED50" stroke-width="4"/>
<path d="M667 523.175C667.928 522.64 669.072 522.64 670 523.175L700.94 541.039C701.868 541.575 702.44 542.565 702.44 543.637V579.363C702.44 580.435 701.868 581.425 700.94 581.961L670 599.825C669.072 600.36 667.928 600.36 667 599.825L636.06 581.961C635.132 581.425 634.56 580.435 634.56 579.363V543.637C634.56 542.565 635.132 541.575 636.06 541.039L667 523.175Z" fill="#FEE032" stroke="#FFED50" stroke-width="4"/>
<path d="M701 582.175C701.928 581.64 703.072 581.64 704 582.175L734.94 600.039C735.868 600.575 736.44 601.565 736.44 602.637V638.363C736.44 639.435 735.868 640.425 734.94 640.961L704 658.825C703.072 659.36 701.928 659.36 701 658.825L670.06 640.961C669.132 640.425 668.56 639.435 668.56 638.363V602.637C668.56 601.565 669.132 600.575 670.06 600.039L701 582.175Z" fill="#FEE032" stroke="#FFED50" stroke-width="4"/>
<path d="M768 582.175C768.928 581.64 770.072 581.64 771 582.175L801.94 600.039C802.868 600.575 803.44 601.565 803.44 602.637V638.363C803.44 639.435 802.868 640.425 801.94 640.961L771 658.825C770.072 659.36 768.928 659.36 768 658.825L737.06 640.961C736.132 640.425 735.56 639.435 735.56 638.363V602.637C735.56 601.565 736.132 600.575 737.06 600.039L768 582.175Z" fill="#FEE032" stroke="#FFED50" stroke-width="4"/>
<path d="M360 231.176C360.928 230.64 362.072 230.64 363 231.176L393.94 249.039C394.868 249.575 395.44 250.565 395.44 251.637V287.364C395.44 288.436 394.868 289.426 393.94 289.962L363 307.825C362.072 308.361 360.928 308.361 360 307.825L329.06 289.962C328.132 289.426 327.56 288.436 327.56 287.364V251.637C327.56 250.565 328.132 249.575 329.06 249.039L360 231.176Z" fill="#FEE032" stroke="#FFED50" stroke-width="4"/>
<path d="M394 290.176C394.928 289.64 396.072 289.64 397 290.176L427.94 308.039C428.868 308.575 429.44 309.565 429.44 310.637V346.364C429.44 347.436 428.868 348.426 427.94 348.962L397 366.825C396.072 367.361 394.928 367.361 394 366.825L363.06 348.962C362.132 348.426 361.56 347.436 361.56 346.364V310.637C361.56 309.565 362.132 308.575 363.06 308.039L394 290.176Z" fill="#FEE032" stroke="#FFED50" stroke-width="4"/>
<path d="M461 290.176C461.928 289.64 463.072 289.64 464 290.176L494.94 308.039C495.868 308.575 496.44 309.565 496.44 310.637V346.364C496.44 347.436 495.868 348.426 494.94 348.962L464 366.825C463.072 367.361 461.928 367.361 461 366.825L430.06 348.962C429.132 348.426 428.56 347.436 428.56 346.364V310.637C428.56 309.565 429.132 308.575 430.06 308.039L461 290.176Z" fill="#FEE032" stroke="#FFED50" stroke-width="4"/>
<path d="M326 290.176C326.928 289.64 328.072 289.64 329 290.176L359.94 308.039C360.868 308.575 361.44 309.565 361.44 310.637V346.364C361.44 347.436 360.868 348.426 359.94 348.962L329 366.825C328.072 367.361 326.928 367.361 326 366.825L295.06 348.962C294.132 348.426 293.56 347.436 293.56 346.364V310.637C293.56 309.565 294.132 308.575 295.06 308.039L326 290.176Z" fill="#FEE032" stroke="#FFED50" stroke-width="4"/>
<path d="M360 349.176C360.928 348.64 362.072 348.64 363 349.176L393.94 367.039C394.868 367.575 395.44 368.565 395.44 369.637V405.364C395.44 406.436 394.868 407.426 393.94 407.962L363 425.825C362.072 426.361 360.928 426.361 360 425.825L329.06 407.962C328.132 407.426 327.56 406.436 327.56 405.364V369.637C327.56 368.565 328.132 367.575 329.06 367.039L360 349.176Z" fill="#FEE032" stroke="#FFED50" stroke-width="4"/>
<path d="M427 349.176C427.928 348.64 429.072 348.64 430 349.176L460.94 367.039C461.868 367.575 462.44 368.565 462.44 369.637V405.364C462.44 406.436 461.868 407.426 460.94 407.962L430 425.825C429.072 426.361 427.928 426.361 427 425.825L396.06 407.962C395.132 407.426 394.56 406.436 394.56 405.364V369.637C394.56 368.565 395.132 367.575 396.06 367.039L427 349.176Z" fill="#FEE032" stroke="#FFED50" stroke-width="4"/>
<path d="M527 293.176C527.928 292.64 529.072 292.64 530 293.176L560.94 311.039C561.868 311.575 562.44 312.565 562.44 313.637V349.364C562.44 350.436 561.868 351.426 560.94 351.962L530 369.825C529.072 370.361 527.928 370.361 527 369.825L496.06 351.962C495.132 351.426 494.56 350.436 494.56 349.364V313.637C494.56 312.565 495.132 311.575 496.06 311.039L527 293.176Z" fill="#FEE032" stroke="#FFED50" stroke-width="4"/>
<path d="M561 352.176C561.928 351.64 563.072 351.64 564 352.176L594.94 370.039C595.868 370.575 596.44 371.565 596.44 372.637V408.364C596.44 409.436 595.868 410.426 594.94 410.962L564 428.825C563.072 429.361 561.928 429.361 561 428.825L530.06 410.962C529.132 410.426 528.56 409.436 528.56 408.364V372.637C528.56 371.565 529.132 370.575 530.06 370.039L561 352.176Z" fill="#FEE032" stroke="#FFED50" stroke-width="4"/>
<path d="M628 352.176C628.928 351.64 630.072 351.64 631 352.176L661.94 370.039C662.868 370.575 663.44 371.565 663.44 372.637V408.364C663.44 409.436 662.868 410.426 661.94 410.962L631 428.825C630.072 429.361 628.928 429.361 628 428.825L597.06 410.962C596.132 410.426 595.56 409.436 595.56 408.364V372.637C595.56 371.565 596.132 370.575 597.06 370.039L628 352.176Z" fill="#FEE032" stroke="#FFED50" stroke-width="4"/>
<path d="M493 352.176C493.928 351.64 495.072 351.64 496 352.176L526.94 370.039C527.868 370.575 528.44 371.565 528.44 372.637V408.364C528.44 409.436 527.868 410.426 526.94 410.962L496 428.825C495.072 429.361 493.928 429.361 493 428.825L462.06 410.962C461.132 410.426 460.56 409.436 460.56 408.364V372.637C460.56 371.565 461.132 370.575 462.06 370.039L493 352.176Z" fill="#FEE032" stroke="#FFED50" stroke-width="4"/>
<path d="M527 411.176C527.928 410.64 529.072 410.64 530 411.176L560.94 429.039C561.868 429.575 562.44 430.565 562.44 431.637V467.364C562.44 468.436 561.868 469.426 560.94 469.962L530 487.825C529.072 488.361 527.928 488.361 527 487.825L496.06 469.962C495.132 469.426 494.56 468.436 494.56 467.364V431.637C494.56 430.565 495.132 429.575 496.06 429.039L527 411.176Z" fill="#FEE032" stroke="#FFED50" stroke-width="4"/>
<path d="M594 411.176C594.928 410.64 596.072 410.64 597 411.176L627.94 429.039C628.868 429.575 629.44 430.565 629.44 431.637V467.364C629.44 468.436 628.868 469.426 627.94 469.962L597 487.825C596.072 488.361 594.928 488.361 594 487.825L563.06 469.962C562.132 469.426 561.56 468.436 561.56 467.364V431.637C561.56 430.565 562.132 429.575 563.06 429.039L594 411.176Z" fill="#FEE032" stroke="#FFED50" stroke-width="4"/>
</svg>
