<svg width="48" height="48" viewBox="0 0 48 48" fill="none" xmlns="http://www.w3.org/2000/svg">
<path d="M23.5 18.6094C24.4375 18.6094 25.3281 18.8906 26.1719 19.3594C27.0156 19.8281 27.6719 20.4844 28.1406 21.3281C28.6094 22.1719 28.8906 23.0625 28.8906 24C28.8906 24.9844 28.6094 25.875 28.1406 26.7188C27.6719 27.5625 27.0156 28.2188 26.1719 28.6875C25.3281 29.1562 24.4375 29.3906 23.5 29.3906C22.5156 29.3906 21.625 29.1562 20.7812 28.6875C19.9375 28.2188 19.2812 27.5625 18.8125 26.7188C18.3438 25.875 18.1094 24.9844 18.1094 24C18.1094 23.0625 18.3438 22.1719 18.8125 21.3281C19.2812 20.4844 19.9375 19.8281 20.7812 19.3594C21.625 18.8906 22.5156 18.6094 23.5 18.6094ZM23.5 27.5156C24.4375 27.5156 25.2812 27.1875 25.9844 26.4844C26.6406 25.8281 27.0156 24.9844 27.0156 24C27.0156 23.0625 26.6406 22.2188 25.9844 21.5156C25.2812 20.8594 24.4375 20.4844 23.5 20.4844C22.5156 20.4844 21.6719 20.8594 21.0156 21.5156C20.3125 22.2188 19.9844 23.0625 19.9844 24C19.9844 24.9844 20.3125 25.8281 21.0156 26.4844C21.6719 27.1875 22.5156 27.5156 23.5 27.5156ZM30.3906 18.375C30.3906 18.0469 30.25 17.7656 30.0156 17.4844C29.7344 17.25 29.4531 17.1094 29.125 17.1094C28.75 17.1094 28.4688 17.25 28.2344 17.4844C27.9531 17.7656 27.8594 18.0469 27.8594 18.375C27.8594 18.75 27.9531 19.0312 28.2344 19.2656C28.4688 19.5469 28.75 19.6406 29.125 19.6406C29.4531 19.6406 29.7344 19.5469 29.9688 19.2656C30.2031 19.0312 30.3438 18.75 30.3906 18.375ZM33.9531 19.6406C33.9531 20.5312 34 21.9844 34 24C34 26.0625 33.9531 27.5156 33.9062 28.4062C33.8594 29.2969 33.7188 30.0469 33.5312 30.7031C33.25 31.5 32.7812 32.2031 32.2188 32.7656C31.6562 33.3281 30.9531 33.75 30.2031 34.0312C29.5469 34.2656 28.75 34.4062 27.8594 34.4531C26.9688 34.5 25.5156 34.5 23.5 34.5C21.4375 34.5 19.9844 34.5 19.0938 34.4531C18.2031 34.4062 17.4531 34.2656 16.7969 33.9844C16 33.75 15.2969 33.3281 14.7344 32.7656C14.1719 32.2031 13.75 31.5 13.4688 30.7031C13.2344 30.0469 13.0938 29.2969 13.0469 28.4062C13 27.5156 13 26.0625 13 24C13 21.9844 13 20.5312 13.0469 19.6406C13.0938 18.75 13.2344 17.9531 13.4688 17.2969C13.75 16.5469 14.1719 15.8438 14.7344 15.2812C15.2969 14.7188 16 14.25 16.7969 13.9688C17.4531 13.7812 18.2031 13.6406 19.0938 13.5938C19.9844 13.5469 21.4375 13.5 23.5 13.5C25.5156 13.5 26.9688 13.5469 27.8594 13.5938C28.75 13.6406 29.5469 13.7812 30.2031 13.9688C30.9531 14.25 31.6562 14.7188 32.2188 15.2812C32.7812 15.8438 33.25 16.5469 33.5312 17.2969C33.7188 17.9531 33.8594 18.75 33.9531 19.6406ZM31.7031 30.1875C31.8906 29.6719 31.9844 28.8281 32.0781 27.6562C32.0781 27 32.125 26.0156 32.125 24.75V23.25C32.125 21.9844 32.0781 21 32.0781 20.3438C31.9844 19.1719 31.8906 18.3281 31.7031 17.8125C31.3281 16.875 30.625 16.1719 29.6875 15.7969C29.1719 15.6094 28.3281 15.5156 27.1562 15.4219C26.4531 15.4219 25.4688 15.375 24.25 15.375H22.75C21.4844 15.375 20.5 15.4219 19.8438 15.4219C18.6719 15.5156 17.8281 15.6094 17.3125 15.7969C16.3281 16.1719 15.6719 16.875 15.2969 17.8125C15.1094 18.3281 14.9688 19.1719 14.9219 20.3438C14.875 21.0469 14.875 22.0312 14.875 23.25V24.75C14.875 26.0156 14.875 27 14.9219 27.6562C14.9688 28.8281 15.1094 29.6719 15.2969 30.1875C15.6719 31.1719 16.375 31.8281 17.3125 32.2031C17.8281 32.3906 18.6719 32.5312 19.8438 32.5781C20.5 32.625 21.4844 32.625 22.75 32.625H24.25C25.5156 32.625 26.5 32.625 27.1562 32.5781C28.3281 32.5312 29.1719 32.3906 29.6875 32.2031C30.625 31.8281 31.3281 31.125 31.7031 30.1875Z" fill="#909090"/>
<circle cx="24" cy="24" r="23" stroke="#989890" stroke-width="2"/>
</svg>
