<svg width="48" height="48" viewBox="0 0 48 48" fill="none" xmlns="http://www.w3.org/2000/svg">
<path d="M34.5156 20.125C35.4531 19.4219 36.2969 18.5781 37 17.5469C36.0625 17.9688 35.125 18.25 34.1875 18.3438C35.2188 17.6875 35.9688 16.7969 36.3438 15.625C35.3594 16.1875 34.3281 16.6094 33.2031 16.7969C32.7344 16.3281 32.1719 15.9531 31.5625 15.6719C30.9531 15.3906 30.2969 15.25 29.5938 15.25C28.7031 15.25 27.9062 15.4844 27.1562 15.9062C26.4062 16.375 25.7969 16.9844 25.375 17.7344C24.9062 18.4844 24.7188 19.3281 24.7188 20.1719C24.7188 20.5469 24.7188 20.9219 24.8125 21.2969C22.7969 21.2031 20.9219 20.7344 19.1406 19.7969C17.3594 18.9062 15.9062 17.6875 14.6875 16.1406C14.2188 16.9375 13.9844 17.7812 13.9844 18.625C13.9844 19.4688 14.1719 20.2656 14.5938 20.9688C14.9688 21.7188 15.5312 22.2812 16.1875 22.75C15.3906 22.75 14.6406 22.5156 13.9844 22.0938V22.1875C13.9844 23.3594 14.3594 24.3906 15.1094 25.2812C15.8594 26.2188 16.7969 26.7812 17.9219 27.0156C17.4531 27.1094 17.0312 27.1562 16.6094 27.1562C16.3281 27.1562 16 27.1562 15.7188 27.1094C16 28.0938 16.5625 28.8906 17.4062 29.5469C18.25 30.2031 19.1875 30.4844 20.3125 30.4844C18.4844 31.8906 16.4219 32.5938 14.1719 32.5938C13.7031 32.5938 13.3281 32.5938 13 32.5469C15.25 34.0469 17.7812 34.75 20.5469 34.75C23.4062 34.75 25.9375 34.0469 28.1875 32.5469C30.2031 31.2344 31.7969 29.5 32.9219 27.25C34 25.1875 34.5625 22.9844 34.5625 20.7344C34.5625 20.4531 34.5156 20.2656 34.5156 20.125Z" fill="#909090"/>
<circle cx="24" cy="24" r="23" stroke="#989890" stroke-width="2"/>
</svg>
